<svg width="212" height="240" viewBox="0 0 212 240" fill="none" xmlns="http://www.w3.org/2000/svg">
<path d="M212 0L192.686 215.975L105.87 240L19.2933 216.009L0 0H212Z" fill="#264DE4"/>
<path d="M176.152 202.222L192.656 17.6619H106V221.636L176.152 202.222Z" fill="#2965F1"/>
<path d="M44.2295 97.7765L46.6082 124.269H106V97.7765H44.2295Z" fill="#EBEBEB"/>
<path d="M106 44.1548H105.908H39.4498L41.8624 70.6477H106V44.1548Z" fill="#EBEBEB"/>
<path d="M106 194.144V166.581L105.884 166.612L76.3256 158.645L74.4361 137.516H60.0733H47.7939L51.5122 179.113L105.878 194.178L106 194.144Z" fill="#EBEBEB"/>
<path d="M138.589 124.269L135.509 158.628L105.908 166.603V194.165L160.317 179.113L160.716 174.637L166.953 104.891L167.6 97.7765L172.392 44.1548H105.908V70.6477H143.306L140.891 97.7765H105.908V124.269H138.589Z" fill="white"/>
</svg>
