<svg width="245" height="245" viewBox="0 0 245 245" fill="none" xmlns="http://www.w3.org/2000/svg">
<rect width="245" height="245" fill="#FBDE34"/>
<path d="M57.1211 123.189H28.9961V142.232H62.0039V154H14.3477V82.9062H61.9062V94.7715H28.9961V111.715H57.1211V123.189ZM107.463 135.348C107.463 132.581 106.486 130.465 104.533 129C102.58 127.503 99.0645 125.94 93.9863 124.312C88.9082 122.652 84.888 121.025 81.9258 119.43C73.8529 115.068 69.8164 109.192 69.8164 101.803C69.8164 97.9616 70.8906 94.5436 73.0391 91.5488C75.2201 88.5215 78.3288 86.1615 82.3652 84.4688C86.4342 82.776 90.9915 81.9297 96.0371 81.9297C101.115 81.9297 105.64 82.8574 109.611 84.7129C113.583 86.5358 116.659 89.1237 118.84 92.4766C121.053 95.8294 122.16 99.638 122.16 103.902H107.512C107.512 100.647 106.486 98.1243 104.436 96.334C102.385 94.5111 99.5039 93.5996 95.793 93.5996C92.2122 93.5996 89.429 94.3646 87.4434 95.8945C85.4577 97.3919 84.4648 99.3776 84.4648 101.852C84.4648 104.163 85.6204 106.1 87.9316 107.662C90.2754 109.225 93.7096 110.689 98.2344 112.057C106.568 114.563 112.639 117.672 116.447 121.383C120.256 125.094 122.16 129.716 122.16 135.25C122.16 141.402 119.833 146.236 115.178 149.752C110.523 153.235 104.257 154.977 96.3789 154.977C90.9102 154.977 85.9297 153.984 81.4375 151.998C76.9453 149.98 73.5111 147.229 71.1348 143.746C68.791 140.263 67.6191 136.227 67.6191 131.637H82.3164C82.3164 139.482 87.0039 143.404 96.3789 143.404C99.862 143.404 102.58 142.704 104.533 141.305C106.486 139.872 107.463 137.887 107.463 135.348ZM168.889 82.1738V93.7949H167.521C161.141 93.8926 155.998 95.5527 152.092 98.7754C148.218 101.998 145.891 106.474 145.109 112.203C148.885 108.362 153.654 106.441 159.416 106.441C165.601 106.441 170.516 108.655 174.162 113.082C177.808 117.509 179.631 123.336 179.631 130.562C179.631 135.185 178.622 139.368 176.604 143.111C174.618 146.855 171.786 149.768 168.107 151.852C164.462 153.935 160.327 154.977 155.705 154.977C148.218 154.977 142.163 152.372 137.541 147.164C132.951 141.956 130.656 135.006 130.656 126.314V121.236C130.656 113.521 132.105 106.718 135.002 100.826C137.932 94.9017 142.115 90.3281 147.551 87.1055C153.02 83.8503 159.351 82.2064 166.545 82.1738H168.889ZM155.119 117.77C152.84 117.77 150.773 118.372 148.918 119.576C147.062 120.748 145.695 122.311 144.816 124.264V128.561C144.816 133.281 145.744 136.975 147.6 139.645C149.455 142.281 152.059 143.6 155.412 143.6C158.439 143.6 160.881 142.411 162.736 140.035C164.624 137.626 165.568 134.518 165.568 130.709C165.568 126.835 164.624 123.71 162.736 121.334C160.848 118.958 158.309 117.77 155.119 117.77ZM217.082 114.205H234.709V126.949H217.082V146.871H203.654V126.949H185.979V114.205H203.654V95.1133H217.082V114.205Z" fill="#343433"/>
</svg>
