<svg width="364" height="512" viewBox="0 0 364 512" fill="none" xmlns="http://www.w3.org/2000/svg">
<path d="M34.4 0H57.4V22.8H78.6V0H101.6V69H78.6V46H57.6V69H34.4V0ZM132 23H111.7V0H175.4V23H155V69H132V23ZM185.5 0H209.6L224.4 24.3L239.2 0H263.3V69H240.3V34.8L224.2 59.6L208.1 34.8V69H185.5V0ZM274.7 0H297.7V46.2H330.3V69H274.7" fill="black"/>
<path d="M33.6 471L0.599976 100.6H363.4L330.4 470.8L181.7 512" fill="#E44D26"/>
<path d="M182 480.5V131H330.3L302 447" fill="#F16529"/>
<path d="M68 176.3H182V221.7H117.8L122 268.2H182V313.5H80.4L68 176.3ZM82.4 336.3H128L131.2 372.6L182 386.2V433.6L88.8 407.6" fill="#EBEBEB"/>
<path d="M295.6 176.3H181.8V221.7H291.4L295.6 176.3ZM287.3 268.2H181.8V313.6H237.8L232.5 372.6L181.8 386.2V433.4L274.8 407.6" fill="white"/>
</svg>
