<svg width="215" height="244" viewBox="0 0 215 244" fill="none" xmlns="http://www.w3.org/2000/svg">
<path d="M0.72168 0L0.7555 2.70777C0.774137 4.19705 5.0854 53.5059 10.3362 112.283L19.8831 219.15L62.7918 231.173C86.3916 237.786 106.188 243.229 106.783 243.271C107.378 243.313 127.435 237.924 151.355 231.296C189.705 220.669 194.882 219.068 195.157 217.753C195.539 215.92 214.32 3.89315 214.3 1.62466L214.287 0H107.504H0.72168Z" fill="white"/>
<path d="M63.1316 231.892L19.8414 219.782L19.2756 216.578C18.7728 213.729 0 3.89063 0 1.11808C0 0.114624 10.9609 0.000701904 107.504 0.000701904C209.411 0.000701904 215.008 0.0664836 215 1.26433C214.966 6.43799 195.535 219.055 195.057 219.478C194.454 220.013 110.665 243.375 107.865 243.789C107.071 243.906 86.9413 238.553 63.1316 231.892ZM134.801 189.102C149.351 185.086 161.466 181.593 161.723 181.34C161.979 181.087 163.682 163.821 165.506 142.971C167.331 122.121 169.008 103.681 169.233 101.993L169.642 98.9247H138.212H106.783V112.283V125.641H123.752H140.721L140.383 127.266C140.198 128.16 139.476 135.838 138.78 144.33C138.042 153.328 137.167 160.117 136.683 160.601C136.226 161.058 129.311 163.177 121.317 165.31L106.783 169.187V182.796C106.783 192.084 107.031 196.405 107.564 196.405C107.994 196.405 120.251 193.119 134.801 189.102V189.102ZM169.228 82.1365C168.751 78.5983 164.503 31.1422 164.503 29.3528C164.503 28.2659 162.005 28.1615 136.004 28.1615H107.504V42.1302V56.099L120.311 56.593C127.355 56.8647 134.767 57.2781 136.784 57.5118L140.45 57.9367L141.34 68.8632C141.829 74.8728 142.413 81.0082 142.636 82.4975L143.042 85.2053H156.342H169.642L169.228 82.1365Z" fill="#EAEBEC"/>
<path d="M62.7917 231.173L19.8831 219.15L10.3362 112.283C5.08538 53.5063 0.774008 4.19775 0.755371 2.70848L0.721497 0.000701904H107.504H214.287L214.301 1.62537C214.32 3.89385 195.539 215.921 195.157 217.753C194.882 219.069 189.705 220.669 151.355 231.297C127.436 237.925 107.378 243.314 106.783 243.272C106.187 243.23 86.3915 237.786 62.7918 231.173H62.7917ZM134.834 189.613C149.666 185.486 162.013 181.768 162.27 181.352C162.527 180.935 164.299 162.787 166.208 141.023C168.116 119.259 169.834 100.883 170.025 100.188C170.353 98.9944 167.829 98.9247 124.292 98.9247H78.2121L80.1741 78.1651C81.2531 66.7473 82.162 57.3759 82.1937 57.3398C82.2255 57.3037 88.9885 57.0878 97.2227 56.86C110.724 56.4866 138.567 57.5645 139.499 58.4967C139.847 58.845 142.136 81.3235 142.136 84.392C142.136 85.905 142.34 85.9274 156.117 85.9274H170.098L169.768 82.8586C169.587 81.1707 168.403 68.0922 167.137 53.7951L164.834 27.8005L110.917 27.6154C68.022 27.4681 56.9976 27.6157 56.9929 28.3375C56.9891 28.8364 56.6753 32.0066 56.2943 35.3823C55.3723 43.5508 48.3408 122.476 48.3408 124.656V126.363H94.2197H140.099L139.69 129.071C139.465 130.56 138.752 138.115 138.105 145.859C137.458 153.604 136.721 160.14 136.466 160.384C135.794 161.03 108.804 168.246 107.121 168.23C106.34 168.223 99.3692 166.482 91.631 164.362L77.5617 160.508L77.0458 154.447C76.762 151.114 76.3303 146.356 76.0865 143.874L75.6431 139.361H61.9919H48.3408L48.371 142.069C48.4275 147.132 51.7086 181.242 52.1851 181.719C52.7361 182.27 105.168 197.02 106.783 197.078C107.378 197.099 120.001 193.74 134.834 189.613H134.834Z" fill="#F0BE25"/>
<path d="M62.7917 231.173L19.8831 219.15L10.3362 112.283C5.08538 53.5063 0.774008 4.19775 0.755371 2.70848L0.721497 0.000701904H107.504H214.287L214.301 1.62537C214.32 3.89385 195.539 215.921 195.157 217.753C194.882 219.069 189.705 220.669 151.355 231.297C127.436 237.925 107.378 243.314 106.783 243.272C106.187 243.23 86.3915 237.786 62.7918 231.173H62.7917ZM142.811 215.088C161.686 209.876 177.484 205.246 177.917 204.799C178.592 204.103 194.894 25.2982 194.828 19.3162L194.806 17.3305H151.155H107.504V22.385V27.4395H82.2515C62.5335 27.4395 56.9975 27.6373 56.9929 28.3421C56.9891 28.8385 56.6753 32.0066 56.2943 35.3823C55.3723 43.5508 48.3408 122.476 48.3408 124.656V126.363H77.9225H107.504V147.304C107.504 163.582 107.303 168.241 106.602 168.23C106.106 168.223 99.3692 166.482 91.631 164.362L77.5617 160.508L77.0458 154.447C76.762 151.114 76.3303 146.356 76.0865 143.874L75.6431 139.361H61.9919H48.3408L48.371 142.069C48.4575 149.814 51.8053 181.428 52.5905 181.914C53.0677 182.209 65.6185 185.818 80.4811 189.934L107.504 197.418V210.992C107.504 218.457 107.726 224.565 107.998 224.565C108.27 224.565 123.936 220.301 142.811 215.088ZM80.098 78.3591C81.1353 67.0481 82.1253 57.6656 82.2981 57.5091C82.4709 57.3527 88.2129 57.0696 95.0582 56.88L107.504 56.5354V77.73V98.9247H92.8581H78.2121L80.098 78.3591Z" fill="#E4A126"/>
</svg>
