<svg xmlns="http://www.w3.org/2000/svg" width="131.986" height="106.507" viewBox="0 0 131.986 106.507"><g transform="translate(-442.063 -991.085)"><path d="M324.5,768.653l3.291,9.872,3.291,12.5s8.556,4.607,9.214,1.316S337,788.4,337,788.4l-1.316-6.581,9.872-17.769Z" transform="translate(139.939 303.272)" fill="#3f3d56"/><path d="M409.5,765.046l5.923,26.983s4.607,2.632,7.9,1.316-1.974-4.607-1.974-4.607,1.974-16.453,11.846-18.427S409.5,765.046,409.5,765.046Z" transform="translate(110.88 302.93)" fill="#3f3d56"/><path d="M407.645,693.513s-13.162,4.607-25.009,1.974c0,0-23.034-3.291-25.009-3.949s-24.35-1.974-36.2,0c0,0-32.906-25.667-14.479-36.855,0,0,7.9,3.949,9.872,1.316.74-.987.37-2.252-.382-3.447a9.557,9.557,0,0,0-7.787-4.324c-6.877-.258-19.2,2.214-13.607,24.7a43.729,43.729,0,0,0,8.6,16.92c3,3.695,6.1,8.808,4.616,12.88-2.632,7.239-3.291,18.427-3.291,18.427l-9.214,13.821s-5.265,17.111-5.265,17.769,7.159,2.054,8.556.658c1.316-1.316-1.974-3.949-1.974-3.949s2.632-5.265,7.239-6.581,17.111-5.923,19.086-7.9,44.094-13.821,55.94-2.633a223.428,223.428,0,0,0,21.06,17.769s3.291,4.607,7.239,4.607,4.607-5.923,0-6.581-11.188-16.453-11.188-16.453-1.974-11.846,7.9-13.82a40.02,40.02,0,0,1,10.5-1.037,5.416,5.416,0,0,0,4.018-1.325,23.157,23.157,0,0,0,3.138-3.729,2.623,2.623,0,0,0,.325-2.386,62.485,62.485,0,0,1-2.184-7.318c-.658-3.291-5.923-5.923-5.923-5.923s-1.316-9.214-3.291-6.581a40.3,40.3,0,0,1-3.291,3.949Z" transform="translate(151.563 342.874)" fill="#3f3d56"/></g></svg>