<svg width="498" height="715" viewBox="0 0 498 715" fill="none" xmlns="http://www.w3.org/2000/svg">
<g filter="url(#filter0_d)">
<path fill-rule="evenodd" clip-rule="evenodd" d="M423.5 158H35L86.0019 640.785C86.0006 640.856 86 640.928 86 641C86 641.945 86.1084 642.883 86.3217 643.812L86.5 645.5H86.8272C94.4201 666.027 153.352 682 224.925 682C301.651 682 368 666.644 368 644C368 643.422 367.957 642.845 367.871 642.269L423.5 158Z" fill="url(#paint0_linear)"/>
<path d="M240.048 43.7872C57.7454 44.6003 58.1564 82.7107 43.9857 100.019L38.0001 149.396C248.669 133.291 407.625 138.489 418.982 153.14L397.625 73.7874C388.161 50.6569 342.484 43.3302 240.048 43.7872Z" fill="url(#paint1_linear)"/>
<path d="M17 148C17 142.477 21.4772 138 27 138H431C436.523 138 441 142.477 441 148V157C441 157.552 440.552 158 440 158H18C17.4477 158 17 157.552 17 157V148Z" fill="url(#paint2_linear)"/>
<path d="M225.596 298.347C122.458 303.42 60.0142 290.244 43 283.022C53.5242 365.987 70.3631 546.185 70.3631 546.185C190.866 605.371 369.778 556.754 382.933 546.185C382.933 546.185 422.684 281.718 412.376 283.022C377 287.5 354.518 292.006 225.596 298.347Z" fill="#F0E7E0"/>
<g clip-path="url(#clip0)">
<path d="M234.024 456.608C234.024 456.608 223.324 486.342 231.645 502.993C239.966 519.644 218.562 538.674 218.562 538.674C218.562 538.674 162.662 510.129 169.798 495.857C176.934 481.585 188.828 462.557 186.449 450.657L234.024 456.608Z" fill="url(#paint3_linear)"/>
<path d="M213.21 391.787C220.738 391.787 228.096 394.019 234.355 398.201C240.614 402.383 245.493 408.327 248.374 415.281C251.254 422.236 252.008 429.889 250.54 437.272C249.071 444.655 245.447 451.436 240.124 456.759C234.801 462.082 228.019 465.707 220.637 467.176C213.254 468.644 205.601 467.891 198.646 465.01C191.692 462.129 185.747 457.251 181.565 450.992C177.383 444.733 175.151 437.375 175.151 429.847C175.151 424.849 176.135 419.9 178.048 415.282C179.96 410.664 182.764 406.469 186.298 402.935C189.832 399.4 194.028 396.597 198.645 394.684C203.263 392.771 208.212 391.787 213.21 391.787V391.787Z" fill="#E6ADAD"/>
<path d="M232.909 379.816L239 375.256C239 375.256 220.529 363.379 201.053 370.064L204.986 362.424C204.986 362.424 189.881 360.62 181.323 378.281C176.824 387.564 171.657 398.445 169.63 409.683L162.327 411.642L167.174 417.538L158.302 427.112L168.933 422.969C169.265 426.821 170.172 430.602 171.621 434.187C173.085 437.766 175.883 440.637 179.423 442.194V442.194C179.423 442.194 183.187 422.416 182.455 419.685L184.286 426.512C184.286 426.512 189.459 418.539 188.361 414.443L193.362 418.225L193.209 410.216L218.165 411.575L212.798 406.428L227.608 404.653L220.013 398.639C220.013 398.639 238.514 403.192 241.145 410.536C243.776 417.88 250.408 423.728 250.408 423.728C250.408 423.728 253.639 385.234 232.909 379.816Z" fill="#412E2E"/>
</g>
<path fill-rule="evenodd" clip-rule="evenodd" d="M211 539C271.751 539 321 489.751 321 429C321 368.249 271.751 319 211 319C150.249 319 101 368.249 101 429C101 489.751 150.249 539 211 539ZM211 500C250.212 500 282 468.212 282 429C282 389.788 250.212 358 211 358C171.788 358 140 389.788 140 429C140 468.212 171.788 500 211 500Z" fill="#388F6B"/>
</g>
<defs>
<filter id="filter0_d" x="0" y="0.624084" width="498" height="714.376" filterUnits="userSpaceOnUse" color-interpolation-filters="sRGB">
<feFlood flood-opacity="0" result="BackgroundImageFix"/>
<feColorMatrix in="SourceAlpha" type="matrix" values="0 0 0 0 0 0 0 0 0 0 0 0 0 0 0 0 0 0 127 0"/>
<feOffset dx="20" dy="-4"/>
<feGaussianBlur stdDeviation="18.5"/>
<feColorMatrix type="matrix" values="0 0 0 0 0 0 0 0 0 0 0 0 0 0 0 0 0 0 0.54 0"/>
<feBlend mode="normal" in2="BackgroundImageFix" result="effect1_dropShadow"/>
<feBlend mode="normal" in="SourceGraphic" in2="effect1_dropShadow" result="shape"/>
</filter>
<linearGradient id="paint0_linear" x1="229.25" y1="158" x2="229.25" y2="682" gradientUnits="userSpaceOnUse">
<stop stop-color="#A73C3C"/>
<stop offset="1" stop-color="#371919"/>
</linearGradient>
<linearGradient id="paint1_linear" x1="229.55" y1="43.4963" x2="228.491" y2="151.268" gradientUnits="userSpaceOnUse">
<stop stop-color="white"/>
<stop offset="1" stop-color="#B6B6B6"/>
</linearGradient>
<linearGradient id="paint2_linear" x1="284" y1="100.353" x2="251.438" y2="233.205" gradientUnits="userSpaceOnUse">
<stop stop-color="#DFDFDF"/>
<stop offset="1" stop-color="#C1C1C1"/>
</linearGradient>
<linearGradient id="paint3_linear" x1="201.596" y1="450.657" x2="129.749" y2="465.91" gradientUnits="userSpaceOnUse">
<stop stop-color="#DCA3A3"/>
<stop offset="1" stop-color="#AD9393"/>
</linearGradient>
<clipPath id="clip0">
<rect x="145" y="353" width="109.726" height="185.674" fill="white"/>
</clipPath>
</defs>
</svg>
