<svg width="498" height="715" viewBox="0 0 498 715" fill="none" xmlns="http://www.w3.org/2000/svg">
<g filter="url(#filter0_d)">
<path fill-rule="evenodd" clip-rule="evenodd" d="M423.5 158H35L86.0019 640.785C86.0006 640.856 86 640.928 86 641C86 641.945 86.1084 642.883 86.3217 643.812L86.5 645.5H86.8272C94.4201 666.027 153.352 682 224.925 682C301.651 682 368 666.644 368 644C368 643.422 367.957 642.845 367.871 642.269L423.5 158Z" fill="url(#paint0_linear)"/>
<path d="M240.048 43.7872C57.7454 44.6003 58.1564 82.7107 43.9857 100.019L38.0001 149.396C248.669 133.291 407.625 138.489 418.982 153.14L397.625 73.7874C388.161 50.6569 342.484 43.3302 240.048 43.7872Z" fill="url(#paint1_linear)"/>
<path d="M17 148C17 142.477 21.4772 138 27 138H431C436.523 138 441 142.477 441 148V157C441 157.552 440.552 158 440 158H18C17.4477 158 17 157.552 17 157V148Z" fill="url(#paint2_linear)"/>
<path d="M225.596 298.347C122.458 303.42 60.0142 290.244 43 283.022C53.5242 365.987 70.3631 546.185 70.3631 546.185C190.866 605.371 369.778 556.754 382.933 546.185C382.933 546.185 422.684 281.718 412.376 283.022C377 287.5 354.518 292.006 225.596 298.347Z" fill="#F0E7E0"/>
</g>
<defs>
<filter id="filter0_d" x="0" y="0.624084" width="498" height="714.376" filterUnits="userSpaceOnUse" color-interpolation-filters="sRGB">
<feFlood flood-opacity="0" result="BackgroundImageFix"/>
<feColorMatrix in="SourceAlpha" type="matrix" values="0 0 0 0 0 0 0 0 0 0 0 0 0 0 0 0 0 0 127 0"/>
<feOffset dx="20" dy="-4"/>
<feGaussianBlur stdDeviation="18.5"/>
<feColorMatrix type="matrix" values="0 0 0 0 0 0 0 0 0 0 0 0 0 0 0 0 0 0 0.54 0"/>
<feBlend mode="normal" in2="BackgroundImageFix" result="effect1_dropShadow"/>
<feBlend mode="normal" in="SourceGraphic" in2="effect1_dropShadow" result="shape"/>
</filter>
<linearGradient id="paint0_linear" x1="229.25" y1="158" x2="229.25" y2="682" gradientUnits="userSpaceOnUse">
<stop stop-color="#A73C3C"/>
<stop offset="1" stop-color="#371919"/>
</linearGradient>
<linearGradient id="paint1_linear" x1="229.55" y1="43.4963" x2="228.491" y2="151.268" gradientUnits="userSpaceOnUse">
<stop stop-color="white"/>
<stop offset="1" stop-color="#B6B6B6"/>
</linearGradient>
<linearGradient id="paint2_linear" x1="284" y1="100.353" x2="251.438" y2="233.205" gradientUnits="userSpaceOnUse">
<stop stop-color="#DFDFDF"/>
<stop offset="1" stop-color="#C1C1C1"/>
</linearGradient>
</defs>
</svg>
