<svg width="498" height="730" viewBox="0 0 498 730" fill="none" xmlns="http://www.w3.org/2000/svg">
<g filter="url(#filter0_d)">
<path fill-rule="evenodd" clip-rule="evenodd" d="M423.5 173H35L86.0019 655.785C86.0006 655.856 86 655.928 86 656C86 656.945 86.1084 657.883 86.3217 658.812L86.5 660.5H86.8272C94.4201 681.027 153.352 697 224.925 697C301.651 697 368 681.644 368 659C368 658.422 367.957 657.845 367.871 657.269L423.5 173Z" fill="url(#paint0_linear)"/>
<path d="M240.048 43.7872C57.7454 44.6003 58.1564 82.7107 43.9857 100.019L38.0001 149.396C248.669 133.291 407.625 138.489 418.982 153.14L397.625 73.7874C388.161 50.6569 342.484 43.3302 240.048 43.7872Z" fill="url(#paint1_linear)"/>
<path d="M17 149C17 143.477 21.4772 139 27 139H431C436.523 139 441 143.477 441 149V172C441 172.552 440.552 173 440 173H18C17.4477 173 17 172.552 17 172V149Z" fill="url(#paint2_linear)"/>
<path d="M225.596 327.347C122.458 332.42 60.0142 319.244 43 312.022C53.5242 394.987 70.3631 575.185 70.3631 575.185C190.866 634.371 369.778 585.754 382.933 575.185C382.933 575.185 422.684 310.718 412.376 312.022C377 316.5 354.518 321.006 225.596 327.347Z" fill="url(#paint3_linear)"/>
<g style="mix-blend-mode:darken">
<path d="M324.999 459.5C324.999 522.737 276.646 574 217 574C157.353 574 109 522.738 109 459.5C109 396.264 157.353 345 217 345C276.647 345 324.999 396.264 324.999 459.5Z" fill="white"/>
<path d="M216.098 385.707C219.9 388.018 223.933 390.993 227.003 394.145L225.797 395.424C219.739 394.744 213.359 395.592 207.616 395.686C206.975 395.004 205.685 393.979 206.887 393.123L216.098 385.707ZM323.215 465.081C323.296 467.965 323.553 470.442 322.486 473.394C311.419 476.714 304.149 464.354 293.41 466.218L294.624 472.625C304.559 472.97 310.765 483.018 321.028 482.586C319.57 485.658 321.679 493.751 315.219 490.516C308.513 488.817 303.665 482.586 296.316 482.586C295.43 484.303 295.991 486.681 295.836 488.712C303.588 489.995 309.163 496.905 316.913 498.181C316.184 500.99 315.461 504.136 313.278 505.849C306.973 504.231 302.049 498.258 295.337 498.429L294.142 504.312C300.521 504.485 304.642 510.438 310.375 512.224C310.532 514.706 308.429 516.923 307.218 519.138C302.129 517.526 298.248 512.914 292.433 513.255C292.352 510.944 293.653 508.32 293.162 505.849C286.631 507.898 282.252 501.497 277.412 497.658C277.273 485.094 264.733 476.851 264.07 465.081C263.943 462.734 264.282 460.229 265.296 457.537C269.417 447.486 268.123 434.436 263.603 425.064C262.23 422.598 259.797 420.651 257.529 419.201C260.847 426.617 264.89 435.38 262.872 444.496C262.638 451.535 258.701 458.295 258.656 465.081C258.64 467.5 259.13 469.92 260.449 472.363C265.703 482.344 275.156 491.792 271.602 504.31C270.624 508.154 267.714 511.128 266.988 515.041C273.134 520.41 278.946 526.461 287.102 526.802C290.008 524.844 288.394 516.163 294.372 520.167L303.1 524.772C302.464 527.237 300.508 529.445 298.736 531.143C295.425 529.442 292.194 527.404 288.065 527.57C286.847 528.933 285.799 530.462 285.892 532.418C288.798 532.922 291.464 534.216 293.891 536.008C292.764 538.569 290.568 540.173 288.548 542.134L281.777 539.58C280.647 541.287 278.299 543.08 279.123 544.952C280.65 545.642 282.345 546.575 283.47 547.771C280.481 551.178 276.693 553.37 273.048 555.683C269.908 544.859 259.563 537.27 260.451 524.752L259.971 524.246C257.539 527.129 258.351 531.741 258.508 535.483C261.419 543.323 268.36 549.379 269.413 557.977C268.198 560.19 265.457 560.631 263.355 561.567C263.599 546.066 241.307 534.309 255.602 518.629C260.37 510.951 268.358 503.623 265.528 493.053C262.622 482.847 252.344 476.523 252.434 465.081L252.45 464.189C254.791 452.257 261.903 439.561 256.085 426.868C254.464 421.762 250.841 415.961 245.914 413.827C253.26 422.696 256.172 437.167 251.97 449.101C249.852 453.848 246.935 459.503 246.643 465.083H246.625C246.469 467.998 247.034 470.896 248.816 473.644C254.394 483.19 264.082 493.675 258.509 506.116C252.209 516.08 241.224 526.216 247.359 539.34C251.801 547.178 258.673 554.999 256.819 564.635L249.549 567.188C254.396 549.216 230.645 538.656 240.588 520.677C246.726 511.05 257.705 502.017 251.49 489.24C247.775 481.323 240.098 476.637 240.34 466.744L240.604 465.083C243.106 451.051 253.219 437.769 246.148 422.774C244.29 418.347 240.576 413.833 236.455 411.274L236.206 411.537C244.449 419.972 246.957 433.85 242.513 445.006C240.439 451.551 235.888 458.071 234.963 465.085C234.523 468.392 234.894 471.819 236.705 475.43C241.955 484.198 251.161 493.5 245.416 504.837C239.366 514.2 229.266 523.311 233.301 535.488C237.744 546.142 247.023 556.29 242.013 569.5L234.512 571.287C240.487 558.413 231.527 545.639 226.279 534.474C219.894 518.456 239.997 510.785 240.319 496.14C240.243 486.687 230.716 481.32 228.702 472.63C224.578 468.961 220.305 474.089 215.375 473.137C211.736 473.909 206.146 467.854 203.974 474.417C201.386 484.04 189.6 491.114 194.78 502.528C199.709 512.67 211.571 520.087 207.608 533.213C204.061 545.473 192.341 557.147 199.61 571.287C196.624 570.267 191.048 572.22 191.129 567.189C186.526 550.065 206.152 540.088 200.09 522.973C197.269 512.489 184.416 506.698 187.246 494.089C189.338 483.71 200.38 476.454 198.831 465.084C198.706 464.132 198.483 463.158 198.166 462.142C194.045 449.874 185.636 437.602 190.648 423.283C192.024 419.193 194.772 415.701 197.187 412.045C189.19 416.559 185.156 426.104 185.321 435.815C184.973 446.375 192.368 455.421 193.42 465.084C193.834 468.984 193.228 472.977 190.648 477.213C185.402 484.722 178.541 492.639 181.686 502.526C184.677 512.499 196.469 518.54 195.742 530.132C195.662 543.843 180.557 552.381 184.838 567.715L177.32 565.143C174.335 551.516 188.064 544.544 188.222 531.936C190.165 517.437 172.633 512.057 173.685 497.924C173.61 487.185 182.571 480.384 186.529 471.351C187.208 469.153 187.434 467.076 187.343 465.085C186.858 455.098 178.326 447.289 179.742 436.061C180.219 427.797 182.884 420.553 187.975 414.338C180.951 417.314 178.05 425.842 176.11 433C172.743 444.478 180.78 454.802 181.586 465.086C181.943 469.627 180.891 474.141 176.84 478.757C171.021 485.99 165.12 495.117 169.321 504.838C173.77 515.564 187.747 523.913 181.685 537.292C178.377 545.728 170.458 552.114 170.783 562.079C168.684 561.142 166.507 560.207 164.724 558.508C164.724 545.815 181.842 537.888 173.686 524.512C172.963 527.151 172.808 530.737 172.242 533.719C169.412 541.476 163.356 547.685 161.09 555.704C157.3 554.161 153.338 550.92 150.186 547.513L154.552 544.694C154.067 542.987 152.777 541.54 151.648 540.092C148.813 539.671 146.951 541.634 144.614 542.403C142.594 540.525 140.645 538.82 139.036 536.52C140.485 532.166 151.809 535.766 146.072 528.607C142.199 526.053 138.312 529.702 134.92 531.405L130.322 525.28C134.28 522.726 138.228 519.14 143.151 520.168C144.365 522.473 144.449 525.862 146.786 527.065C155.107 526.894 161.004 520.255 167.382 515.057C162.936 508.079 159.318 498.445 163.267 490.007C166.431 481.551 174.676 474.429 175.05 465.08C175.134 462.953 174.82 460.714 173.938 458.304C169.578 446.46 168.04 430.452 176.361 419.969C171.836 421.251 169.169 427.199 167.632 431.715C162.629 443.281 168.956 453.996 169.175 465.08C169.204 467.073 169.051 469.071 168.593 471.084C164.31 480.2 157.372 488.198 156.245 498.687C151.316 502.004 147.269 507.803 140.246 505.846C139.999 507.804 140.565 510.788 141.209 513.005C135.64 512.758 131.842 517.088 127.153 519.133C124.655 518.287 124.005 514.881 123.038 512.498C128.527 510.543 132.486 504.739 138.788 504.831C139.519 502.69 138.379 500.728 138.057 498.686C130.218 495.016 117.792 516.828 116.747 497.917C124.58 497.405 129.586 489.736 137.344 488.971L137.575 482.846C128.771 481.908 123.108 491.454 114.307 490.513L112.366 482.339C122.546 483.01 128.612 473.387 138.307 472.869C139.595 471.083 139.75 468.441 139.999 465.973C129.416 464.518 122.154 476.888 110.923 473.131C110.923 473.131 110.536 467.983 110.326 465.08H110.341C110.265 463.945 110.192 463.154 110.192 463.154C120.208 467.253 129.007 459.665 137.575 455.749C139.755 455.061 143.153 456.253 144.13 453.7C144.045 451.74 147.434 449.449 144.613 448.081C132.087 446.288 123.766 462.224 110.921 454.977L109.958 452.929C112.63 414.424 133.218 377.197 167.382 358.878C181.219 350.537 198.409 346.286 215.745 346.135C236.667 345.952 257.807 351.741 273.533 363.482C288.805 373.363 303.413 389.647 311.34 406.177C318.922 420.66 322.412 436.911 323.454 454.212C310.204 464.772 301.315 444.263 287.822 448.853C288.549 451.073 288.951 453.369 290.494 455.243C302.452 455.154 310.687 468.361 323.204 463.156L323.215 465.081ZM171.013 417.659C162.611 411.863 151.959 417.32 144.129 420.477C143.402 412.72 140.415 405.653 134.188 400.541C133.584 400.224 132.749 399.557 131.997 399.508C131.547 399.478 131.118 399.67 130.786 400.277C133.608 418.592 122.321 431.371 114.322 445.264C116.985 447.561 121.264 447.217 124.495 446.543C132.974 442.966 141.051 436.741 151.148 438.875C154.134 433.507 159.151 428.309 163.264 424.049C165.777 421.755 169.23 420.298 171.013 417.659ZM196.704 429.161C196.543 430.264 196.785 432.23 198.397 431.47C200.905 427.807 205.345 430.705 208.09 430.963V429.932C206.584 427.438 203.486 426.185 200.339 426.31C199.613 426.336 198.875 426.448 198.165 426.622C197.112 426.869 196.38 427.885 196.704 429.161ZM236.202 418.185C233.947 412.901 228.777 410.763 224.085 409.485C221.786 409.187 219.399 408.984 217.032 408.961C216.588 408.956 216.145 408.95 215.704 408.961C209.082 409.102 202.756 410.895 198.891 416.643C198.336 418.266 195.897 420.545 198.162 422C203.251 421.657 209.058 420.984 212.451 425.59C212.451 429.684 214.957 435.13 210.758 437.09C207.28 433.693 203.16 438.536 199.374 435.81C197.595 434.701 196.468 435.995 195.739 437.613C194.687 448.176 199.931 459.832 209.299 465.709C213.096 467.154 218.2 468.528 222.162 466.478C231.693 461.797 235.641 451.068 237.415 441.184C237.177 439.303 237.262 435.637 234.76 435.548C231.935 437.433 227.814 436.32 224.82 435.548C223.049 436.151 222.968 438.883 220.953 439.401L219.725 438.368C218.674 433.689 218.025 427.041 222.149 423.804C226.757 421.844 232.169 420.987 236.934 422.525C237.823 420.908 236.45 419.634 236.202 418.185ZM231.339 426.586C231.019 426.594 230.708 426.611 230.392 426.622C228.7 427.813 223.767 426.957 225.548 430.963C228.619 428.4 232.9 430.196 235.97 431.47C237.105 430.876 236.858 429.683 236.933 428.654C235.948 426.72 233.593 426.539 231.339 426.586ZM266.508 390.563C260.529 390.229 255.523 393.808 250.029 395.428C249.55 390.497 253.102 385.29 253.912 380.34C245.029 380.943 237.994 386.582 230.646 391.087C228.945 386.753 227.24 382.397 225.551 378.046L235.244 368.331L235.492 367.051L222.399 366.282C220.144 362.114 219.255 357.094 216.59 353.26C214.408 357.605 212.943 362.203 210.764 366.544L197.687 367.316V368.331L207.612 377.784C206.399 382.643 205.271 387.922 202.285 391.594C196.47 387.92 190.737 383.922 184.361 381.37C182.827 380.848 180.64 379.999 179.267 381.108C181.283 385.796 184.107 390.838 183.632 395.954C180.965 395.436 178.869 393.632 176.363 392.874C173.366 392.012 169.811 390.327 166.903 391.351C171.751 398.504 175.707 405.99 177.076 414.598C193.157 406.411 211.911 401.908 231.379 405.407C240.504 406.939 248.895 410.859 257.054 414.089C257.373 405.063 262.784 397.81 266.508 390.563ZM294.123 439.644C302.356 441.943 310.615 451.404 319.333 445.265C311.74 431.976 300.44 419.705 303.583 402.327C303.911 401.14 303.185 399.939 302.139 399.771C297.214 401.894 293.4 407.012 291.451 412.043C290.649 415.019 290.174 418.182 289.045 420.987C283.145 417.748 276.848 414.61 269.66 415.368C267.068 415.709 263.351 415.888 262.873 418.695C271.031 423.293 277.739 430.968 282.739 439.14C286.22 438.541 290.489 439.052 294.123 439.644ZM207.857 451.654L208.089 453.194C211.246 455.412 212.216 459.171 216.586 458.83C220.461 459.073 223.369 455.243 225.299 452.178C220.055 451.415 213.674 452.596 207.857 451.654ZM212.221 444.757C212.378 445.44 211.821 446.462 212.701 446.807C215.286 446.215 219.969 448.258 221.413 445.02C220.405 443.829 218.759 443.288 217.033 443.288C215.307 443.288 213.515 443.819 212.221 444.757Z" fill="#007042"/>
<path opacity="0.99" d="M207.863 441.801H225.574V449.476H207.863V441.801Z" fill="white"/>
<path d="M211.134 445.905C213.423 446.476 213.99 447.332 215.798 447.571C217.721 447.535 217.444 447.123 220.798 445.902C221.018 445.821 221.32 445.308 220.945 444.915C218.862 442.735 217.423 444.293 216.118 444.334C214.386 444.354 212.762 442.77 211.07 444.829C210.782 445.247 210.631 445.657 211.134 445.905Z" fill="#007042"/>
<path d="M294.809 571.834V560.903H291.107V558.677H301.02V560.903H297.327V571.834H294.809Z" fill="#007042"/>
<path d="M302.62 571.834V558.676H306.39L308.653 567.652L310.891 558.676H314.669V571.834H312.329V561.477L309.853 571.834H307.427L304.96 561.477V571.834H302.62Z" fill="#007042"/>
</g>
</g>
<defs>
<filter id="filter0_d" x="0" y="0.624084" width="498" height="729.376" filterUnits="userSpaceOnUse" color-interpolation-filters="sRGB">
<feFlood flood-opacity="0" result="BackgroundImageFix"/>
<feColorMatrix in="SourceAlpha" type="matrix" values="0 0 0 0 0 0 0 0 0 0 0 0 0 0 0 0 0 0 127 0"/>
<feOffset dx="20" dy="-4"/>
<feGaussianBlur stdDeviation="18.5"/>
<feColorMatrix type="matrix" values="0 0 0 0 0 0 0 0 0 0 0 0 0 0 0 0 0 0 0.54 0"/>
<feBlend mode="normal" in2="BackgroundImageFix" result="effect1_dropShadow"/>
<feBlend mode="normal" in="SourceGraphic" in2="effect1_dropShadow" result="shape"/>
</filter>
<linearGradient id="paint0_linear" x1="229.25" y1="173" x2="229.25" y2="697" gradientUnits="userSpaceOnUse">
<stop stop-color="#A73C3C"/>
<stop offset="1" stop-color="#371919"/>
</linearGradient>
<linearGradient id="paint1_linear" x1="229.55" y1="43.4963" x2="228.491" y2="151.268" gradientUnits="userSpaceOnUse">
<stop stop-color="white"/>
<stop offset="1" stop-color="#525252"/>
</linearGradient>
<linearGradient id="paint2_linear" x1="284" y1="75" x2="199" y2="279" gradientUnits="userSpaceOnUse">
<stop stop-color="#DFDFDF"/>
<stop offset="1" stop-color="#4E4E4E"/>
</linearGradient>
<linearGradient id="paint3_linear" x1="228.542" y1="312.018" x2="228.542" y2="604" gradientUnits="userSpaceOnUse">
<stop stop-color="#DAB699"/>
<stop offset="1" stop-color="#724C2D"/>
</linearGradient>
</defs>
</svg>
