<svg width="498" height="715" viewBox="0 0 498 715" fill="none" xmlns="http://www.w3.org/2000/svg">
<g filter="url(#filter0_d)">
<path fill-rule="evenodd" clip-rule="evenodd" d="M423.5 158H35L86.0019 640.785C86.0006 640.856 86 640.928 86 641C86 641.945 86.1084 642.883 86.3217 643.812L86.5 645.5H86.8272C94.4201 666.027 153.352 682 224.925 682C301.651 682 368 666.644 368 644C368 643.422 367.957 642.845 367.871 642.269L423.5 158Z" fill="url(#paint0_linear)"/>
<path d="M240.048 43.7872C57.7454 44.6003 58.1564 82.7107 43.9857 100.019L38.0001 149.396C248.669 133.291 407.625 138.489 418.982 153.14L397.625 73.7874C388.161 50.6569 342.484 43.3302 240.048 43.7872Z" fill="url(#paint1_linear)"/>
<path d="M17 148C17 142.477 21.4772 138 27 138H431C436.523 138 441 142.477 441 148V157C441 157.552 440.552 158 440 158H18C17.4477 158 17 157.552 17 157V148Z" fill="url(#paint2_linear)"/>
<path d="M225.596 298.347C122.458 303.42 60.0142 290.244 43 283.022C53.5242 365.987 70.3631 546.185 70.3631 546.185C190.866 605.371 369.778 556.754 382.933 546.185C382.933 546.185 422.684 281.718 412.376 283.022C377 287.5 354.518 292.006 225.596 298.347Z" fill="#F0E7E0"/>
<g style="mix-blend-mode:darken">
<path d="M324.999 430.5C324.999 493.737 276.646 545 217 545C157.353 545 109 493.738 109 430.5C109 367.264 157.353 316 217 316C276.647 316 324.999 367.264 324.999 430.5Z" fill="white"/>
<path d="M216.098 356.707C219.9 359.018 223.933 361.993 227.003 365.145L225.797 366.424C219.739 365.744 213.359 366.592 207.616 366.686C206.975 366.004 205.685 364.979 206.887 364.123L216.098 356.707ZM323.215 436.081C323.296 438.965 323.553 441.442 322.486 444.394C311.419 447.714 304.149 435.354 293.41 437.218L294.624 443.625C304.559 443.97 310.765 454.018 321.028 453.586C319.57 456.658 321.679 464.751 315.218 461.516C308.513 459.817 303.665 453.586 296.316 453.586C295.43 455.303 295.991 457.681 295.836 459.712C303.588 460.995 309.163 467.905 316.913 469.181C316.184 471.99 315.461 475.136 313.278 476.849C306.973 475.231 302.049 469.258 295.337 469.429L294.142 475.312C300.521 475.485 304.642 481.438 310.375 483.224C310.532 485.706 308.429 487.923 307.218 490.138C302.129 488.526 298.248 483.914 292.433 484.255C292.352 481.944 293.653 479.32 293.162 476.849C286.631 478.898 282.252 472.497 277.412 468.658C277.273 456.094 264.733 447.851 264.07 436.081C263.943 433.734 264.282 431.229 265.296 428.537C269.417 418.486 268.123 405.436 263.603 396.064C262.23 393.598 259.797 391.651 257.529 390.201C260.847 397.617 264.89 406.38 262.872 415.496C262.638 422.535 258.701 429.295 258.656 436.081C258.64 438.5 259.13 440.92 260.449 443.363C265.703 453.344 275.156 462.792 271.602 475.31C270.624 479.154 267.714 482.128 266.988 486.041C273.134 491.41 278.946 497.461 287.102 497.802C290.008 495.844 288.394 487.163 294.372 491.167L303.1 495.772C302.464 498.237 300.508 500.445 298.736 502.143C295.425 500.442 292.194 498.404 288.065 498.57C286.847 499.933 285.799 501.462 285.892 503.418C288.798 503.922 291.464 505.216 293.891 507.008C292.764 509.569 290.568 511.173 288.548 513.134L281.777 510.58C280.647 512.287 278.299 514.08 279.123 515.952C280.65 516.642 282.345 517.575 283.47 518.771C280.481 522.178 276.693 524.37 273.048 526.683C269.908 515.859 259.563 508.27 260.451 495.752L259.971 495.246C257.539 498.129 258.351 502.741 258.508 506.483C261.419 514.323 268.36 520.379 269.413 528.977C268.198 531.19 265.457 531.631 263.355 532.567C263.599 517.066 241.307 505.309 255.602 489.629C260.37 481.951 268.358 474.623 265.528 464.053C262.622 453.847 252.344 447.523 252.434 436.081L252.45 435.189C254.791 423.257 261.903 410.561 256.085 397.868C254.464 392.762 250.841 386.961 245.914 384.827C253.26 393.696 256.172 408.167 251.97 420.101C249.852 424.848 246.935 430.503 246.643 436.083H246.625C246.469 438.998 247.034 441.896 248.816 444.644C254.394 454.19 264.082 464.675 258.509 477.116C252.209 487.08 241.224 497.216 247.359 510.34C251.801 518.178 258.673 525.999 256.819 535.635L249.549 538.188C254.396 520.216 230.645 509.656 240.588 491.677C246.726 482.05 257.705 473.017 251.49 460.24C247.775 452.323 240.098 447.637 240.34 437.744L240.604 436.083C243.106 422.051 253.219 408.769 246.148 393.774C244.29 389.347 240.576 384.833 236.455 382.274L236.206 382.537C244.449 390.972 246.957 404.85 242.513 416.006C240.439 422.551 235.888 429.071 234.963 436.085C234.523 439.392 234.894 442.819 236.705 446.43C241.955 455.198 251.161 464.5 245.416 475.837C239.366 485.2 229.266 494.311 233.301 506.488C237.744 517.142 247.023 527.29 242.013 540.5L234.512 542.287C240.487 529.413 231.527 516.639 226.279 505.474C219.894 489.456 239.997 481.785 240.319 467.14C240.243 457.687 230.716 452.32 228.702 443.63C224.578 439.961 220.305 445.089 215.375 444.137C211.736 444.909 206.146 438.854 203.974 445.417C201.386 455.04 189.6 462.114 194.78 473.528C199.709 483.67 211.571 491.087 207.608 504.213C204.061 516.473 192.341 528.147 199.61 542.287C196.624 541.267 191.048 543.22 191.129 538.189C186.526 521.065 206.152 511.088 200.09 493.973C197.269 483.489 184.416 477.698 187.246 465.089C189.338 454.71 200.38 447.454 198.831 436.084C198.706 435.132 198.483 434.158 198.166 433.142C194.045 420.874 185.636 408.602 190.648 394.283C192.024 390.193 194.772 386.701 197.187 383.045C189.19 387.559 185.156 397.104 185.321 406.815C184.973 417.375 192.368 426.421 193.42 436.084C193.834 439.984 193.228 443.977 190.648 448.213C185.402 455.722 178.541 463.639 181.686 473.526C184.677 483.499 196.469 489.54 195.742 501.132C195.662 514.843 180.557 523.381 184.838 538.715L177.32 536.143C174.335 522.516 188.064 515.544 188.222 502.936C190.165 488.437 172.633 483.057 173.685 468.924C173.61 458.185 182.571 451.384 186.529 442.351C187.208 440.153 187.434 438.076 187.343 436.085C186.858 426.098 178.326 418.289 179.742 407.061C180.219 398.797 182.884 391.553 187.975 385.338C180.951 388.314 178.05 396.842 176.11 404C172.743 415.478 180.78 425.802 181.586 436.086C181.943 440.627 180.891 445.141 176.84 449.757C171.021 456.99 165.12 466.117 169.321 475.838C173.77 486.564 187.747 494.913 181.685 508.292C178.377 516.728 170.458 523.114 170.783 533.079C168.684 532.142 166.507 531.207 164.724 529.508C164.724 516.815 181.842 508.888 173.686 495.512C172.963 498.151 172.808 501.737 172.242 504.719C169.412 512.476 163.356 518.685 161.09 526.704C157.3 525.161 153.338 521.92 150.186 518.513L154.552 515.694C154.067 513.987 152.777 512.54 151.648 511.092C148.813 510.671 146.951 512.634 144.614 513.403C142.594 511.525 140.645 509.82 139.036 507.52C140.485 503.166 151.809 506.766 146.072 499.607C142.199 497.053 138.312 500.702 134.92 502.405L130.322 496.28C134.28 493.726 138.228 490.14 143.151 491.168C144.365 493.473 144.449 496.862 146.786 498.065C155.107 497.894 161.004 491.255 167.382 486.057C162.936 479.079 159.318 469.445 163.267 461.007C166.431 452.551 174.676 445.429 175.05 436.08C175.134 433.953 174.82 431.714 173.938 429.304C169.578 417.46 168.04 401.452 176.361 390.969C171.836 392.251 169.169 398.199 167.632 402.715C162.629 414.281 168.956 424.996 169.175 436.079C169.204 438.073 169.051 440.071 168.593 442.084C164.31 451.2 157.372 459.198 156.245 469.687C151.316 473.004 147.269 478.803 140.246 476.846C139.999 478.804 140.565 481.788 141.209 484.005C135.64 483.758 131.842 488.088 127.153 490.133C124.655 489.287 124.005 485.881 123.038 483.498C128.527 481.543 132.486 475.739 138.788 475.831C139.519 473.69 138.379 471.728 138.057 469.686C130.218 466.016 117.792 487.828 116.747 468.917C124.58 468.405 129.586 460.736 137.344 459.971L137.575 453.846C128.771 452.908 123.108 462.454 114.307 461.513L112.366 453.339C122.546 454.01 128.612 444.387 138.307 443.869C139.595 442.083 139.75 439.441 139.999 436.973C129.416 435.518 122.154 447.888 110.923 444.131C110.923 444.131 110.536 438.983 110.326 436.08H110.341C110.265 434.945 110.192 434.154 110.192 434.154C120.208 438.253 129.007 430.665 137.575 426.749C139.755 426.061 143.153 427.253 144.13 424.7C144.045 422.74 147.434 420.449 144.613 419.081C132.087 417.288 123.766 433.224 110.921 425.977L109.958 423.929C112.63 385.424 133.218 348.197 167.382 329.878C181.219 321.537 198.409 317.286 215.745 317.135C236.667 316.952 257.807 322.741 273.533 334.482C288.805 344.363 303.413 360.647 311.34 377.177C318.922 391.66 322.412 407.911 323.454 425.212C310.204 435.772 301.315 415.263 287.822 419.853C288.549 422.073 288.951 424.369 290.494 426.243C302.452 426.154 310.687 439.361 323.204 434.156L323.215 436.081ZM171.013 388.659C162.611 382.863 151.959 388.32 144.129 391.477C143.402 383.72 140.415 376.653 134.188 371.541C133.584 371.224 132.749 370.557 131.997 370.508C131.547 370.478 131.118 370.67 130.786 371.277C133.608 389.592 122.321 402.371 114.322 416.264C116.985 418.561 121.264 418.217 124.495 417.543C132.974 413.966 141.051 407.741 151.148 409.875C154.134 404.507 159.151 399.309 163.264 395.049C165.777 392.755 169.23 391.298 171.013 388.659ZM196.704 400.161C196.543 401.264 196.785 403.23 198.397 402.47C200.905 398.807 205.345 401.705 208.09 401.963V400.932C206.584 398.438 203.486 397.185 200.339 397.31C199.613 397.336 198.875 397.448 198.165 397.622C197.112 397.869 196.38 398.885 196.704 400.161ZM236.202 389.185C233.947 383.901 228.777 381.763 224.085 380.485C221.786 380.187 219.399 379.984 217.032 379.961C216.588 379.956 216.145 379.95 215.704 379.961C209.082 380.102 202.756 381.895 198.891 387.643C198.336 389.266 195.897 391.546 198.162 393C203.251 392.657 209.058 391.984 212.451 396.59C212.451 400.684 214.957 406.13 210.758 408.09C207.28 404.693 203.16 409.536 199.374 406.81C197.595 405.701 196.468 406.995 195.739 408.613C194.687 419.176 199.931 430.832 209.299 436.709C213.096 438.154 218.2 439.528 222.162 437.478C231.693 432.797 235.641 422.068 237.415 412.184C237.177 410.303 237.262 406.637 234.76 406.548C231.935 408.433 227.814 407.32 224.82 406.548C223.049 407.151 222.968 409.883 220.953 410.401L219.725 409.368C218.674 404.689 218.025 398.041 222.149 394.804C226.757 392.844 232.169 391.987 236.934 393.525C237.823 391.908 236.45 390.634 236.202 389.185ZM231.339 397.586C231.019 397.594 230.708 397.611 230.392 397.622C228.7 398.813 223.767 397.957 225.548 401.963C228.619 399.4 232.9 401.196 235.97 402.47C237.105 401.876 236.858 400.683 236.933 399.654C235.948 397.72 233.593 397.539 231.339 397.586ZM266.508 361.563C260.529 361.229 255.523 364.808 250.029 366.428C249.55 361.497 253.102 356.29 253.912 351.34C245.029 351.943 237.994 357.582 230.646 362.087C228.945 357.753 227.24 353.397 225.551 349.046L235.244 339.331L235.492 338.051L222.399 337.282C220.144 333.114 219.255 328.094 216.59 324.26C214.408 328.605 212.943 333.203 210.764 337.544L197.687 338.316V339.331L207.612 348.784C206.399 353.643 205.271 358.922 202.285 362.594C196.47 358.92 190.737 354.922 184.361 352.37C182.827 351.848 180.64 350.999 179.267 352.108C181.283 356.796 184.107 361.838 183.632 366.954C180.965 366.436 178.869 364.632 176.363 363.874C173.366 363.012 169.811 361.327 166.903 362.351C171.751 369.504 175.707 376.99 177.076 385.598C193.157 377.411 211.911 372.908 231.379 376.407C240.504 377.939 248.895 381.859 257.054 385.089C257.373 376.063 262.784 368.81 266.508 361.563ZM294.123 410.644C302.356 412.943 310.615 422.404 319.333 416.265C311.74 402.976 300.44 390.705 303.583 373.327C303.911 372.14 303.185 370.939 302.139 370.771C297.214 372.894 293.4 378.012 291.451 383.043C290.649 386.019 290.174 389.182 289.045 391.987C283.145 388.748 276.848 385.61 269.66 386.368C267.068 386.709 263.351 386.888 262.873 389.695C271.031 394.293 277.739 401.968 282.739 410.14C286.22 409.541 290.489 410.052 294.123 410.644ZM207.857 422.654L208.089 424.194C211.246 426.412 212.216 430.171 216.586 429.83C220.461 430.073 223.369 426.243 225.299 423.178C220.055 422.415 213.674 423.596 207.857 422.654ZM212.221 415.757C212.378 416.44 211.821 417.462 212.701 417.807C215.286 417.215 219.969 419.258 221.413 416.02C220.405 414.829 218.759 414.288 217.033 414.288C215.307 414.288 213.515 414.819 212.221 415.757Z" fill="#007042"/>
<path opacity="0.99" d="M207.863 412.801H225.574V420.476H207.863V412.801Z" fill="white"/>
<path d="M211.134 416.905C213.423 417.476 213.99 418.332 215.798 418.571C217.721 418.535 217.444 418.123 220.798 416.902C221.018 416.821 221.32 416.308 220.945 415.915C218.862 413.735 217.423 415.293 216.118 415.334C214.386 415.354 212.762 413.77 211.07 415.829C210.782 416.247 210.631 416.657 211.134 416.905Z" fill="#007042"/>
<path d="M294.809 542.834V531.903H291.107V529.677H301.02V531.903H297.327V542.834H294.809Z" fill="#007042"/>
<path d="M302.62 542.834V529.676H306.39L308.653 538.652L310.891 529.676H314.669V542.834H312.329V532.477L309.853 542.834H307.427L304.96 532.477V542.834H302.62Z" fill="#007042"/>
</g>
</g>
<defs>
<filter id="filter0_d" x="0" y="0.624084" width="498" height="714.376" filterUnits="userSpaceOnUse" color-interpolation-filters="sRGB">
<feFlood flood-opacity="0" result="BackgroundImageFix"/>
<feColorMatrix in="SourceAlpha" type="matrix" values="0 0 0 0 0 0 0 0 0 0 0 0 0 0 0 0 0 0 127 0"/>
<feOffset dx="20" dy="-4"/>
<feGaussianBlur stdDeviation="18.5"/>
<feColorMatrix type="matrix" values="0 0 0 0 0 0 0 0 0 0 0 0 0 0 0 0 0 0 0.54 0"/>
<feBlend mode="normal" in2="BackgroundImageFix" result="effect1_dropShadow"/>
<feBlend mode="normal" in="SourceGraphic" in2="effect1_dropShadow" result="shape"/>
</filter>
<linearGradient id="paint0_linear" x1="229.25" y1="158" x2="229.25" y2="682" gradientUnits="userSpaceOnUse">
<stop stop-color="#A73C3C"/>
<stop offset="1" stop-color="#371919"/>
</linearGradient>
<linearGradient id="paint1_linear" x1="229.55" y1="43.4963" x2="228.491" y2="151.268" gradientUnits="userSpaceOnUse">
<stop stop-color="white"/>
<stop offset="1" stop-color="#B6B6B6"/>
</linearGradient>
<linearGradient id="paint2_linear" x1="284" y1="100.353" x2="251.438" y2="233.205" gradientUnits="userSpaceOnUse">
<stop stop-color="#DFDFDF"/>
<stop offset="1" stop-color="#C1C1C1"/>
</linearGradient>
</defs>
</svg>
