<svg xmlns="http://www.w3.org/2000/svg" width="212.246" height="191.228" viewBox="0 0 212.246 191.228"><g transform="translate(0 -270.447)"><path d="M186.783,648.491h14.533l35.812-14.013s25.432-10.38,23.356,9.342-5.709,46.193-5.709,46.193-11.418-5.19-17.647-3.633-2.076-31.66-2.076-31.66S184.188,679.113,179.517,676s-5.709-24.913-5.709-24.913Z" transform="translate(-129.691 -247.335)" fill="#2f2e41"/><path d="M186.783,648.491h14.533l35.812-14.013s25.432-10.38,23.356,9.342-5.709,46.193-5.709,46.193-11.418-5.19-17.647-3.633-2.076-31.66-2.076-31.66S184.188,679.113,179.517,676s-5.709-24.913-5.709-24.913Z" transform="translate(-129.691 -247.335)" opacity="0.1"/><path d="M244.737,558.82l17.587,25.269,41,34.255s37.888,8.823,32.7,15.052-36.85-6.228-36.85-6.228-47.231-34.255-48.788-36.85S231.7,563.328,231.7,563.328Z" transform="translate(-164.748 -203.174)" fill="#a0616a"/><path d="M244.737,558.82l17.587,25.269,41,34.255s37.888,8.823,32.7,15.052-36.85-6.228-36.85-6.228-47.231-34.255-48.788-36.85S231.7,563.328,231.7,563.328Z" transform="translate(-164.748 -203.174)" fill="rgba(255,200,173,0.85)"/><path d="M211.988,507.092l11.418,22.318s-2.6,10.9-6.747,11.937-21.8-13.495-21.8-13.495Z" transform="translate(-142.44 -171.851)" fill="#d0cde1"/><path d="M211.988,507.092l11.418,22.318s-2.6,10.9-6.747,11.937-21.8-13.495-21.8-13.495Z" transform="translate(-142.44 -171.851)" opacity="0.1"/><path d="M567.23,643.881l3.373,13.914a.869.869,0,0,1-.017.47l-15.3,47.813a.869.869,0,0,1-1.691-.167l-2.117-18.626a.869.869,0,0,1,.037-.367l14.044-43.1a.869.869,0,0,1,1.67.064Z" transform="translate(-358.382 -254.28)" fill="#2f2e41"/><path d="M505.591,575.493l3.114,11.938-13.495,43.6L492.1,617.534Z" transform="translate(-297.983 -184.716)" fill="#f2f2f2"/><path d="M415.781,775.7c.519,1.557,53.978-.519,54.5-1.038a11.27,11.27,0,0,0,1.142-2.076c.488-1.038.934-2.076.934-2.076L470.278,753.7l-52.94-1.879s-1.324,14.242-1.593,20.761A15.584,15.584,0,0,0,415.781,775.7Z" transform="translate(-276.165 -320.046)" fill="#2f2e41"/><path d="M440.731,689.965l1.038,14.532H418.413V689.965Z" transform="translate(-253.365 -254.034)" opacity="0.1"/><path d="M377.962,701.764l.139-.028-.658,6.256H364.467v-6.229Z" transform="translate(-220.698 -261.161)" opacity="0.1"/><path d="M415.781,807.569c.519,1.557,53.978-.519,54.5-1.038a11.269,11.269,0,0,0,1.142-2.076H415.745A15.576,15.576,0,0,0,415.781,807.569Z" transform="translate(-276.165 -351.915)" opacity="0.1"/><circle cx="23.356" cy="23.356" r="23.356" transform="translate(53.978 281.263)" fill="#ffc8ad"/><path d="M199.493,451.21s-7.785,13.495-9.342,20.761-23.356-14.533-23.356-14.533l-2.855-7.526s20.5-9.6,18.944-17.387S199.493,451.21,199.493,451.21Z" transform="translate(-123.716 -125.83)" fill="#ffc8ad"/><path d="M226.352,584.722l21.28,28.027L298.5,650.638s36.85,7.785,28.546,13.495-32.179-5.19-32.179-5.19-51.383-27.508-62.282-38.927-31.141-30.622-31.141-30.622Z" transform="translate(-146.423 -218.859)" fill="#ffc8ad"/><path d="M121.319,690.281l6.228,9.861,37.171-11.694a29.226,29.226,0,0,1,24.333,2.936c6.488,4.087,10.64,10.575,1.3,20.177-18.685,19.2-31.141,8.823-31.141,8.823s-62.8,29.584-73.182,15.052-10.9-21.8-10.9-21.8S115.091,688.724,121.319,690.281Z" transform="translate(-69.936 -280.82)" fill="#2f2e41"/><path d="M305.935,774.916s16.609,10.9-3.114,16.09-34.255-2.076-34.255-2.076-17.128,0-17.128-8.823,5.709-9.861,5.709-9.861l17.647,2.6S296.074,767.131,305.935,774.916Z" transform="translate(-176.699 -331.2)" fill="#d0cde1"/><path d="M229.747,371.13a17.414,17.414,0,0,0,4.894,1.753,4.468,4.468,0,0,0,4.514-1.934,6.071,6.071,0,0,0,.513-2.746c.063-2.85-.144-5.931-1.95-8.137-1.149-1.4-2.827-2.289-4.017-3.658a17.287,17.287,0,0,1-2.031-3.318c-2.314-4.346-5.74-8.523-10.5-9.775a22.773,22.773,0,0,0-6.13-.469l-11.991.169a20.876,20.876,0,0,0-5.768.621c-3.859,1.167-6.67,4.412-9.243,7.516a47.008,47.008,0,0,0-5.3,7.316,25.671,25.671,0,0,0-3.043,12.578,11.768,11.768,0,0,0,.431,3.328,18.469,18.469,0,0,0,1.308,2.873c2.249,4.417,3.584,9.933,1.051,14.194,4.4-1.8,8.752-4.153,11.653-7.916,1.3-1.683,2.316-3.654,4.046-4.889s4.549-1.342,5.659.471a5.071,5.071,0,0,1,.572,2.376,10.888,10.888,0,0,0,.656,4.009,3,3,0,0,0,3.264,1.862c2.26-.637,2.043-4.1,3.784-5.68,1.322-1.2,3.361-.968,5.059-1.511a7.508,7.508,0,0,0,4.309-4.244c.643-1.442.634-5.216,1.85-6C224.863,368.942,228.332,370.5,229.747,371.13Z" transform="translate(-133.253 -72.386)" fill="#3a1a1a"/><path d="M100.338,472.242a6.159,6.159,0,0,1,3.206.008c3.332.894,10.8,3.262,12.4,6.865,2.076,4.671,9.342,11.937,9.342,11.937s9.861,9.861,7.785,16.609-9.861,14.533-9.861,14.533,2.076,32.179-8.3,40.484-14.533,2.6-14.533,10.38S68.2,605.238,61.968,590.186c0,0,3.114-28.027,2.076-37.888C63.021,542.579,64.519,481.939,100.338,472.242Z" transform="translate(-61.968 -150.622)" fill="#d0cde1"/><path d="M164.245,503.684S195.906,527.04,190.2,536.9c0,0-19.2,9.342-23.356,8.823S146.6,527.04,142.447,525.483,136.218,495.9,164.245,503.684Z" transform="translate(-109.229 -168.961)" fill="#d0cde1"/></g></svg>