<svg xmlns="http://www.w3.org/2000/svg" width="275.958" height="194.035" viewBox="0 0 275.958 194.035"><path d="M11.887,0H264.071a11.887,11.887,0,0,1,11.887,11.887V182.142H0V11.887A11.887,11.887,0,0,1,11.887,0Z" transform="translate(0 0)" fill="#8ccee6"/><circle cx="14.07" cy="14.07" r="14.07" transform="translate(234.174 31.042)" fill="#e3ea12"/><ellipse cx="15.828" cy="5.116" rx="15.828" ry="5.116" transform="translate(4.157 183.803)" opacity="0.1"/><path d="M327.227,308.563V292.546H275.971v16.017H259.954v18.763H222.885v73.68H343.7V308.563ZM259.5,393.685H231.122v-5.492H259.5Zm0-16.933H231.122V371.26H259.5Zm0-16.933H231.122v-5.492H259.5Zm0-16.933H231.122v-5.492H259.5Zm30.2,46.222H273.225V372.633H289.7Zm0-26.543H273.225V346.09H289.7Zm0-26.543H273.225V319.547H289.7Zm42.1,53.086H315.329V372.633H331.8Zm0-26.543H315.329V346.09H331.8Zm0-26.543H315.329V319.547H331.8Z" transform="translate(-205.495 -239.002)" fill="#fff" opacity="0.3"/><path d="M660.825,308.563v92.444H778.439v-73.68H742.353V308.563H726.76V292.546h-49.9v16.017Zm81.973,79.63H770.42v5.492H742.8Zm0-16.933H770.42v5.492H742.8Zm0-16.933H770.42v5.492H742.8Zm0-16.933H770.42v5.492H742.8Zm-29.4,35.238h16.038v16.475H713.395Zm0-26.543h16.038v16.475H713.395Zm0-26.543h16.038v16.475H713.395Zm-40.987,53.086h16.038v16.475H672.408Zm0-26.543h16.038v16.475H672.408Zm0-26.543h16.038v16.475H672.408Z" transform="translate(-503.396 -239.002)" fill="#fcfcfc" opacity="0.3"/><path d="M427.068,125.1H180.387A11.887,11.887,0,0,0,168.5,136.985V307.239H444.458V136.985A11.887,11.887,0,0,0,432.571,125.1ZM185.89,145.234h98.85V287.1H185.89ZM427.068,287.1H327.759V145.234h99.308Z" transform="translate(-168.5 -125.098)" fill="#bcdbee"/><path d="M427.068,125.1H180.387A11.887,11.887,0,0,0,168.5,136.985V307.239H444.458V136.985A11.887,11.887,0,0,0,432.571,125.1ZM185.89,145.234h98.85V287.1H185.89ZM427.068,287.1H327.759V145.234h99.308Z" transform="translate(-168.5 -125.098)" opacity="0.1"/><path d="M46.416,563.9h-9.1l-4.481-11.845,19.559.24Z" transform="translate(-22.333 -375.526)" fill="#2f2e41"/><path d="M46.416,563.9h-9.1l-4.481-11.845,19.559.24Z" transform="translate(-22.333 -375.526)" opacity="0.1"/><path d="M248.86,532.818c.218,1.67.411,3.548.522,5.54l3.94-6.677.047.089a15.131,15.131,0,0,0-2.278-3.581l.051.083Z" transform="translate(-223.164 -399.294)" fill="#6c63ff"/><path d="M248.357,522.954a7.97,7.97,0,0,0-3.247-2.3c-.061-.021-.122-.041-.184-.06.108.445.721,3.062,1.219,6.764Z" transform="translate(-220.488 -394.127)" fill="#6c63ff"/><path d="M249.431,575.8q-.075.639-.167,1.258l6.6-5.917.033.108q.026-1.073-.026-2.129l-6.423,6.728Z" transform="translate(-223.438 -427.137)" fill="#6c63ff"/><path d="M250.594,551.88l5.617-6.937.04.1a23.785,23.785,0,0,0-1.691-5.354l-4.016,6.8Q250.689,549.3,250.594,551.88Z" transform="translate(-224.309 -407.117)" fill="#6c63ff"/><path d="M226.441,544.792l-9.906-7.368.023-.111a19.856,19.856,0,0,0-1.244,3.8l11.209,7.937C226.546,547.559,226.511,546.122,226.441,544.792Z" transform="translate(-200.344 -405.501)" fill="#6c63ff"/><path d="M225.864,558.722q.022-.55.034-1.091l-11.25-7.966.021-.111q-.151.691-.266,1.419l.021-.111Z" transform="translate(-199.724 -413.827)" fill="#6c63ff"/><path d="M249.871,567.178l6.369-6.672.036.1a28.4,28.4,0,0,0-.46-3.8l-5.692,7.031Q250.051,565.564,249.871,567.178Z" transform="translate(-223.851 -418.763)" fill="#6c63ff"/><path d="M214.632,574.594l.029-.12,9.472,8.244a34.161,34.161,0,0,0,.881-4l-11.085-7.737A27.483,27.483,0,0,0,214.632,574.594Z" transform="translate(-199.402 -428.404)" fill="#6c63ff"/><path d="M233.788,520.082l.061-.044a5.389,5.389,0,0,0-5.094,1.146l6.257,5.662C234.472,522.84,233.8,520.12,233.788,520.082Z" transform="translate(-209.487 -393.596)" fill="#6c63ff"/><path d="M253.192,580.874a13.455,13.455,0,0,0,.7-3.323q.051-.668.07-1.333l-6.678,5.987c-.02.128-.039.257-.061.383a33.928,33.928,0,0,1-.8,3.606l6.738-5.427Z" transform="translate(-221.507 -431.965)" fill="#6c63ff"/><path d="M228.646,530.2l-6.4-5.792.027-.107a11.454,11.454,0,0,0-2.934,4.068l9.826,7.307C229.053,533.7,228.862,531.846,228.646,530.2Z" transform="translate(-203.082 -396.646)" fill="#6c63ff"/><path d="M224.75,567.172l.006-.006a46.1,46.1,0,0,0,.48-4.939l-11.47-7.88q-.152.988-.233,2.038a16.523,16.523,0,0,0,.067,3.006Z" transform="translate(-199.107 -417.088)" fill="#6c63ff"/><path d="M283.885,614.641l-.014.1-4.658,2.045c-.9,1.425-1.947,2.995-3.132,4.6l7.294-2.629-.02.1A15.13,15.13,0,0,0,283.885,614.641Z" transform="translate(-241.681 -458.102)" fill="#6c63ff"/><path d="M290.878,605.836a7.969,7.969,0,0,0-1.033-3.843c-.034-.056-.068-.11-.1-.163-.2.411-1.4,2.818-3.376,5.987Z" transform="translate(-248.677 -449.387)" fill="#6c63ff"/><path d="M254.412,656.186q-.465.444-.931.863l8.857-.348-.044.1q.7-.809,1.338-1.656l-9.238,1.085Z" transform="translate(-226.307 -485.657)" fill="#6c63ff"/><path d="M264.874,634.99l8.751-1.761-.033.1a23.78,23.78,0,0,0,2.112-5.2l-7.433,2.679Q266.6,633.059,264.874,634.99Z" transform="translate(-234.057 -467.277)" fill="#6c63ff"/><path d="M256.952,648.929l9.161-1.076-.039.1a28.391,28.391,0,0,0,2.07-3.221l-8.869,1.785Q258.12,647.8,256.952,648.929Z" transform="translate(-228.668 -478.573)" fill="#6c63ff"/><path d="M200.025,613.456l.158-.244a23.627,23.627,0,0,0,5.032-2.613l-1.073-6.527q.059-.27.11-.543l1.142,6.949a34.159,34.159,0,0,0,3.229-2.517l-3.29-11.9.175-.143,3.286,11.882h.008a46.094,46.094,0,0,0,3.52-3.5L209,592.614c.055-.06.11-.12.165-.181l3.325,11.689q.368-.409.722-.819l-3.2-11.868.16-.2,3.2,11.878c.973-1.137,1.862-2.265,2.657-3.335L213.1,587.785l.088-.071c-.318.156-.638.329-.959.512a17.4,17.4,0,0,0,1.257-2.725l-6.8,5.479a26.08,26.08,0,0,1-1.185,3.245c-.11.156-.22.312-.326.473l.039.142c-.045.094-.09.189-.137.282l-.053-.192c-.076.118-.148.241-.222.361a24.511,24.511,0,0,0,1.738-4.37l-9.4-8.184c.226.854.487,1.706.771,2.547a14.938,14.938,0,0,0-3.107-2.529l.074.063-.766,5.029c.724,1.521,1.487,3.248,2.209,5.108l1.66-7.464c.036.1.072.207.108.311l-1.657,7.446q1,2.62,1.712,5.107l2.487-6.483.113.234-2.514,6.553q.463,1.662.791,3.251l3.269-6.8.116.213-3.3,6.874-.031-.041q.126.631.23,1.248l3.885-6.7.119.2-3.952,6.813c.021.128.042.256.061.383a33.951,33.951,0,0,1,.356,3.676l.386-.591q-.08.315-.154.62l-.22.336c.005.189.005.374.007.56q-.085.367-.162.716c.008-.428.01-.857,0-1.287l-11.472-4.877a63.358,63.358,0,0,0,10.634,11.909c.159-.532.292-1.073.4-1.621l.183-.056c-.013.067-.027.134-.041.2l-.092.031.085.006c-.079.383-.165.761-.265,1.129.18-.243.45-.618.771-1.1,2.49.123,9.127.118,14.2-2.9l-8.734-.119A23.873,23.873,0,0,1,200.025,613.456Zm3.724-11.777.159-.244.05.307-.159.244Z" transform="translate(-181.866 -436.4)" fill="#6c63ff"/><path d="M286.809,596.579l.075.005a5.389,5.389,0,0,0-4.654-2.366l1.207,8.352C285.576,599.14,286.792,596.615,286.809,596.579Z" transform="translate(-245.863 -444.21)" fill="#6c63ff"/><path d="M245.614,661.268a33.927,33.927,0,0,1-2.914,2.268l8.651.118-.045.1a13.456,13.456,0,0,0,2.658-2.114q.465-.482.9-.982l-8.962.352C245.808,661.1,245.711,661.184,245.614,661.268Z" transform="translate(-218.973 -489.405)" fill="#6c63ff"/><path d="M266.741,595.476l2.907,11.9c1.17-1.588,2.207-3.139,3.093-4.548l-1.235-8.543.089-.065a11.454,11.454,0,0,0-4.854,1.261Z" transform="translate(-235.327 -444.207)" fill="#6c63ff"/><path d="M200.207,580.126a7.97,7.97,0,0,0-3.8-1.185c-.065,0-.129,0-.193,0,.24.39,1.632,2.689,3.25,6.056Z" transform="translate(-187.352 -433.817)" fill="#6c63ff"/><path d="M188.407,606.852l-11.7-3.945-.013-.112a19.859,19.859,0,0,0-.007,4l13.113,4.083C189.364,609.451,188.886,608.1,188.407,606.852Z" transform="translate(-174.004 -450.044)" fill="#6c63ff"/><path d="M190.41,620.92q-.149-.53-.305-1.048l-13.162-4.1-.014-.112q.069.7.185,1.432l-.015-.112Z" transform="translate(-174.234 -458.795)" fill="#6c63ff"/><path d="M195.641,644.452a34.158,34.158,0,0,0-.4-4.075l-12.934-3.931a27.468,27.468,0,0,0,1.784,3.216l-.009-.123Z" transform="translate(-177.894 -472.934)" fill="#6c63ff"/><path d="M186.365,579.006l.044-.06a5.389,5.389,0,0,0-4.49,2.665l7.7,3.451C187.869,581.418,186.387,579.04,186.365,579.006Z" transform="translate(-177.628 -433.82)" fill="#6c63ff"/><path d="M186.374,591.177l-7.877-3.53-.007-.11a11.453,11.453,0,0,0-1.533,4.775l11.6,3.913C187.845,594.387,187.09,592.68,186.374,591.177Z" transform="translate(-174.252 -439.665)" fill="#6c63ff"/><path d="M191.978,629.292a46.1,46.1,0,0,0-1.07-4.846L177.564,620.5q.161.986.408,2.01a16.517,16.517,0,0,0,.993,2.838l13.007,3.954Z" transform="translate(-174.666 -462.085)" fill="#6c63ff"/><path d="M47.1,566.538h-9.1l-4.161-12.484H52.819Z" transform="translate(-23.014 -376.886)" fill="#2f2e41"/></svg>