<svg width="234" height="374" viewBox="0 0 234 374" fill="none" xmlns="http://www.w3.org/2000/svg">
<line x1="145.474" y1="294.158" x2="143.474" y2="300.158" stroke="#767676"/>
<line x1="175.474" y1="233.158" x2="173.474" y2="239.158" stroke="#767676"/>
<line x1="183.474" y1="235.158" x2="181.474" y2="241.158" stroke="#767676"/>
<path d="M152 104.5C152 105.881 150.881 107 149.5 107C148.119 107 147 105.881 147 104.5C147 103.119 148.119 102 149.5 102C150.881 102 152 103.119 152 104.5Z" fill="#373737"/>
<path d="M206.784 132.019L152 103C152.985 104.51 153 106.5 149.5 107.5C166.571 117.006 201.448 135.565 204.244 135.993C207.04 136.421 207.102 133.522 206.784 132.019Z" fill="#2D2D2D"/>
<path d="M201 149.5L206 156.5L211 158.5L213 152.933L206.741 145.933L205.5 144.5L201 149.5Z" fill="#504646"/>
<path d="M95 54.5L93.5 53L93 52.5L89.5 62L86.5 60L85.5 63C87.9 61 95 63.6667 98.5 65H101.5L107.5 69.5L114 73.5L118 69L113 63.5L117.5 58.5L122.5 52.5L122 50.5L116.5 45.5L113 42.5L111 44.5L109.5 42.5L95 54.5Z" fill="#585858"/>
<path d="M117.5 67.5L117.5 48C117.5 45.5 113.6 43.1 110 43.5C106.4 43.9 100.19 50.1667 96.1904 54C98.3571 57 102.8 63.1 110 67.5C117.2 71.9 118.167 69.3333 117.5 67.5Z" fill="#363636"/>
<path d="M105.218 62.3197C105.487 62.3837 105.749 62.4442 106 62.5C105.784 62.4565 105.517 62.396 105.218 62.3197C102.271 61.6194 98.4163 60.5 97.5 60.5C96.7 60.5 96 60 96 59C96 58 97 57.5 97.5 57L98.5 56C98.5 56 102.4 52.9 104 48.5C105.6 44.1 109 46 110.5 47.5C110 47.1667 108.7 46.4 107.5 48C106.3 49.6 102.667 55.1667 101 57.5C100.5 58.0678 99.8001 59.4628 101 60.5C101.977 61.3448 103.906 61.9846 105.218 62.3197Z" fill="#504646"/>
<rect x="201" y="129" width="3" height="15" fill="#333333"/>
<rect x="206" y="133" width="3" height="15" fill="#333333"/>
<path d="M96 36C96 37 94.1667 40 93 41L92 40.5L91 43L92 43.5H92.5C95.5 41 96.5 39 97 38V31.5C97 29 98 23.4 102 21C106 18.6 108.833 17.5 109.5 17.5C114.5 17 119 17 122.5 20C126.258 23.2213 126.632 25.7944 127 28C127.5 31 125.5 34.1667 124 35C122.333 36.1667 119 38.5 118 39C116.927 39.5367 115.5 40.6667 115 41.5L114 43.5L116 45C116 44.6667 116.5 43.7 116.5 42.5C116.5 41.3 118.833 40 120 39.5L124 37.5C125 36.8333 127.3 34.8 128.5 32C129.7 29.2 129 25.8333 128.5 24.5C128.5 22.5 124 18 120 16.5C116.8 15.3 110.333 16 107.5 16.5C105.1 16.5 99 21.5 97 24C96.5 26 96 32 96 36Z" fill="#333333"/>
<path d="M163 334L163 329C165.167 329 167 329.417 167 331.5C167 333.528 164.833 334 163 334Z" fill="#333333"/>
<path d="M146.5 310L149 302.5" stroke="black"/>
<path d="M162.5 325H146.5L145 324L142 323C141.667 322.167 141.2 320.2 142 319C142.8 317.8 144 317.5 144.5 317.5L146.5 310.5L142 304V300L143 299L148 301.5L149 302L150 300L164 302C164.5 302.5 165.2 304.2 164 307C163.42 308.354 163.128 308.944 163 309.155V325H162.5Z" fill="#333333"/>
<path d="M45.5 49.5V51C63.5 49.8 73 56.5 83.5 66.5L84.5 65C68 48.5 52.6667 49 45.5 49.5Z" fill="#333333"/>
<path d="M4.49997 95.8592C7.44852 88.3444 11.3912 81.3046 16.1029 75.1417C21.5 69.5 27 63.5085 32 59.5C37.5392 55.0592 40.4558 52 46.4245 51C51.9245 50.0785 61.9245 52 66.4245 54C73.9245 58 78.9246 61.5 83.4246 66.5C87.0947 71.2586 86.9245 75 88.4245 82C89.1836 88.5 89.9201 96.0934 89.1836 103.816C88.4471 111.539 86.5504 119.381 83.6019 126.896L44.0509 111.378L4.49997 95.8592Z" fill="url(#paint0_radial)"/>
<path d="M83 127C81.1278 131.658 62.7064 128.239 40.5882 119.348C18.4699 110.458 2.12779 100.158 4 95.5C5.87222 90.8423 25.2498 93.5903 47.368 102.481C69.4863 111.372 84.8722 122.342 83 127Z" fill="#333333"/>
<ellipse cx="43.7798" cy="110.952" rx="41.8107" ry="8.36956" transform="rotate(21.898 43.7798 110.952)" fill="white"/>
<rect x="156" y="325" width="7" height="3" fill="#333333"/>
<path d="M96 29C97.1792 26.0028 96.845 18.3699 94.5 15C92.1551 11.6301 90.423 8.63149 85.9275 6.8629C81.4321 5.09431 77.0126 5.13122 73 6C68.9875 6.86878 64.6792 11.5028 63.5 14.5C63.5 14.5 74.9114 15.44 81.4815 18.164C87.7928 20.7807 96 29 96 29Z" fill="#333333"/>
<path d="M89.458 8.94594C89.5928 8.60341 89.4081 7.67346 88.979 7.22494C88.5499 6.77641 88.2241 6.38344 87.4825 6.09167C86.7408 5.79989 86.0424 5.72804 85.4227 5.76393C84.803 5.79983 84.2015 6.28651 84.0667 6.62904C84.0667 6.62904 85.888 6.93993 86.9743 7.38321C88.0178 7.80903 89.458 8.94594 89.458 8.94594Z" fill="#B5B5B5"/>
<path d="M61 17.5L49 43C72.7427 45.427 81.5 54.5 85 57.5L91.5 42.5C94.5 33 97.3486 31.6837 94.5 28.5C86 19 77.5 16.5 65.3231 15C62.5739 14.6614 61.4947 16.8258 61 17.5Z" fill="url(#paint1_linear)"/>
<path d="M48.5 43.5L45.5 49C67.5 47.349 81.5 61 85 65L86.5 60C76.9 47.6 57.1667 43.8333 48.5 43.5Z" fill="#333333"/>
<rect x="52.6171" y="32.4964" width="1" height="11.4576" transform="rotate(23.764 52.6171 32.4964)" fill="#C4C4C4"/>
<path d="M107.694 48.0821C108.713 46.5995 111.019 47.1117 111.314 48.8864L113.447 61.6848C113.697 63.1804 112.256 64.3987 110.823 63.9044L101.986 60.8571C100.736 60.4262 100.241 58.9228 100.99 57.8333L107.694 48.0821Z" fill="#656565"/>
<rect x="114.03" y="73.8451" width="6.23544" height="114.898" transform="rotate(-49.2933 114.03 73.8451)" fill="url(#paint2_linear)"/>
<path d="M93 45.5L91.5 43.5L85.5 57V58L86.5 59.5L89.5 62L95.5 47L93 45.5Z" fill="#C4C4C4"/>
<rect x="118.282" y="57.969" width="6.23544" height="133.975" transform="rotate(-49.2933 118.282 57.969)" fill="url(#paint3_linear)"/>
<rect width="5.29381" height="153.756" transform="matrix(0.932366 0.361516 0.361516 -0.932366 150.43 300.357)" fill="url(#paint4_linear)"/>
<path d="M157.175 304.241L162.111 306.155L224.265 145.858L219.329 143.944L157.175 304.241Z" fill="url(#paint5_linear)"/>
<ellipse cx="108" cy="56.5" rx="2" ry="3.5" fill="#AFAFAF"/>
<path d="M186.5 350.5C148.344 361.5 102.5 356.5 90.3273 349.5C89.5245 350.582 90.4945 351.098 90.829 352C89.6249 353.803 90.3273 356.098 90.829 357C89.6249 358.803 90.4945 363.948 90.829 365C113.908 379.425 186.656 374.5 187.158 363.5C187.961 360.976 187.66 358.251 187.158 357.5C188 354 187 355 187.158 352.5C187.552 351.259 187.693 350.192 187.5 350C187.3 349.801 186.755 350.5 186.5 350.5Z" fill="url(#paint6_linear)"/>
<path d="M187.5 350C188.5 353 165.51 358 139 358C112.49 358 90 353.5 90 349C90 343.477 109 337.5 139 337.5C165.51 337.5 187.5 340.5 187.5 350Z" fill="url(#paint7_radial)"/>
<circle cx="160.5" cy="310.5" r="1.5" fill="#C4C4C4"/>
<circle cx="157.5" cy="307.5" r="1.5" fill="#C4C4C4"/>
<circle cx="149" cy="322" r="2" fill="#C4C4C4"/>
<path d="M228 120.5C225 117.5 209.667 124 206.5 126L205 126C209.8 122.4 222.5 118 227 118.5C228.5 119.5 230 120 232 124C234.062 128.123 233.393 133.75 232 137C229 144 227.667 144 226 146L226.5 143.5L228 141.5C235 132 230.5 121.475 228 120.5Z" fill="#333333"/>
<circle cx="114" cy="48" r="2" fill="#585858"/>
<circle cx="114" cy="66" r="2" fill="#585858"/>
<path d="M91 43.5C82.5 36 77 34 69.5 30L63.5 45.5C76 49.5 81.8333 54.1667 85 57.5L91 43.5Z" fill="url(#paint8_linear)"/>
<path d="M226.5 146.5L215 153L218.5 146.5L219 144.5L217.5 143L223 140L226.5 143C229.3 145.4 227.667 146.333 226.5 146.5Z" fill="#434343"/>
<path d="M216.542 145.322C218.101 145.27 219.116 146.943 218.351 148.302L213.354 157.178C212.61 158.499 210.725 158.545 209.918 157.262L204.555 148.729C203.733 147.422 204.639 145.717 206.182 145.665L216.542 145.322Z" fill="#656565"/>
<ellipse cx="212" cy="150.5" rx="2" ry="3.5" fill="#AFAFAF"/>
<circle cx="224.5" cy="144.5" r="1.5" fill="#585858"/>
<circle cx="185" cy="235" r="2" fill="#585858"/>
<circle cx="173.5" cy="233.5" r="1.5" fill="#585858"/>
<path d="M157 101.5C157 102.881 155.881 104 154.5 104C153.119 104 152 102.881 152 101.5C152 100.119 153.119 99 154.5 99C155.881 99 157 100.119 157 101.5Z" fill="#373737"/>
<path d="M213.5 129L156.5 99.5C157.5 101 158 103 155 104.5C172.167 113.833 208.2 132.6 211 133C213.8 133.4 213.833 130.5 213.5 129Z" fill="#2D2D2D"/>
<path d="M147.61 294.786L176.551 237.5C175 236.049 175 236.049 171.536 236.049L171.536 236.049C162.371 253.306 143.958 289.521 143.586 292.325C143.213 295.129 146.113 295.134 147.61 294.786Z" fill="#2D2D2D"/>
<path d="M155.61 295.786L184.551 238.5C183 237.049 183 237.049 179.536 237.049L179.536 237.049C170.371 254.306 151.958 290.521 151.586 293.325C151.213 296.129 154.113 296.134 155.61 295.786Z" fill="#2D2D2D"/>
<path d="M176.5 235.5L177.5 232H173.5C173.1 232 173 234 173 235L176.5 235.5Z" fill="#545151"/>
<path d="M184.5 236.5L185.5 233H181.5C181.1 233 181 235 181 236L184.5 236.5Z" fill="#545151"/>
<line x1="153.49" y1="295.098" x2="152.49" y2="300.098" stroke="#767676"/>
<ellipse cx="159" cy="344.5" rx="6" ry="1.5" fill="#333333"/>
<path d="M155.216 328.317C155.432 328.317 163 328.317 163 328.317L163 344H155.216C155.216 344 155 328.317 155.216 328.317Z" fill="#333333"/>
<defs>
<radialGradient id="paint0_radial" cx="0" cy="0" r="1" gradientUnits="userSpaceOnUse" gradientTransform="translate(55.3013 82.7045) rotate(111.423) scale(30.8013 42.4865)">
<stop stop-color="#ABABAB"/>
<stop offset="1" stop-color="#333333"/>
</radialGradient>
<linearGradient id="paint1_linear" x1="57.5" y1="29.5" x2="90" y2="45.5" gradientUnits="userSpaceOnUse">
<stop stop-color="#333333"/>
<stop offset="1" stop-color="#505050"/>
</linearGradient>
<linearGradient id="paint2_linear" x1="120.572" y1="109.993" x2="111.352" y2="110.013" gradientUnits="userSpaceOnUse">
<stop stop-color="#333333"/>
<stop offset="1" stop-color="#686868"/>
</linearGradient>
<linearGradient id="paint3_linear" x1="124.823" y1="100.119" x2="115.603" y2="100.136" gradientUnits="userSpaceOnUse">
<stop stop-color="#333333"/>
<stop offset="1" stop-color="#686868"/>
</linearGradient>
<linearGradient id="paint4_linear" x1="5.55358" y1="48.3735" x2="-2.27368" y2="48.3842" gradientUnits="userSpaceOnUse">
<stop stop-color="#333333"/>
<stop offset="1" stop-color="#686868"/>
</linearGradient>
<linearGradient id="paint5_linear" x1="181.907" y1="255.817" x2="174.613" y2="252.979" gradientUnits="userSpaceOnUse">
<stop stop-color="#333333"/>
<stop offset="1" stop-color="#686868"/>
</linearGradient>
<linearGradient id="paint6_linear" x1="139" y1="358" x2="138.835" y2="373.933" gradientUnits="userSpaceOnUse">
<stop stop-color="#2F2D2D"/>
<stop offset="1" stop-color="#444141" stop-opacity="0.58"/>
</linearGradient>
<radialGradient id="paint7_radial" cx="0" cy="0" r="1" gradientUnits="userSpaceOnUse" gradientTransform="translate(138.766 347.75) rotate(90) scale(10.25 48.7657)">
<stop stop-color="#8C8C8C"/>
<stop offset="1" stop-color="#4A4A4A"/>
</radialGradient>
<linearGradient id="paint8_linear" x1="66.5" y1="37" x2="88" y2="50.5" gradientUnits="userSpaceOnUse">
<stop stop-color="#323232" stop-opacity="0.31"/>
<stop offset="1" stop-color="#737373"/>
</linearGradient>
</defs>
</svg>
